<svg id="Layer_1" data-name="Layer 1" xmlns="http://www.w3.org/2000/svg" xmlns:xlink="http://www.w3.org/1999/xlink" viewBox="0 0 1024 1024"><defs><style>.cls-1{fill:none;}.cls-2{clip-path:url(#clip-path);}.cls-3{fill:#749cd2;}.cls-4{fill:#fff;}</style><clipPath id="clip-path"><circle class="cls-1" cx="512" cy="512" r="512"/></clipPath></defs><g class="cls-2"><rect class="cls-3" width="1024" height="1024"/><path class="cls-4" d="M250,201.21h147.4a10,10,0,0,1,10,10V812.79a10,10,0,0,1-10,10H380a140,140,0,0,1-140-140V211.21a10,10,0,0,1,10-10Z"/><rect class="cls-4" x="428.3" y="373.9" width="167.4" height="448.9" rx="10"/><path class="cls-4" d="M756.62,201.21H774a10,10,0,0,1,10,10V812.79a10,10,0,0,1-10,10H626.62a10,10,0,0,1-10-10V341.21A140,140,0,0,1,756.62,201.21Z" transform="translate(1400.64 1024) rotate(-180)"/></g></svg>