<svg id="Layer_1" data-name="Layer 1" xmlns="http://www.w3.org/2000/svg" viewBox="0 0 1024 1024"><defs><style>.cls-1{fill:#749cd2;}.cls-2{fill:#fff;}</style></defs><rect class="cls-1" width="1024" height="1024"/><path class="cls-2" d="M197,147H377a10,10,0,0,1,10,10V867a10,10,0,0,1-10,10H327A140,140,0,0,1,187,737V157A10,10,0,0,1,197,147Z"/><rect class="cls-2" x="412" y="349.81" width="200" height="527.19" rx="10"/><path class="cls-2" d="M777,147h50a10,10,0,0,1,10,10V867a10,10,0,0,1-10,10H647a10,10,0,0,1-10-10V287A140,140,0,0,1,777,147Z" transform="translate(1474 1024) rotate(-180)"/></svg>